<svg width="85" height="59" viewBox="0 0 85 59" fill="none" xmlns="http://www.w3.org/2000/svg">
<path d="M4.512 47V13.4H18.336C21.312 13.4 23.856 13.88 25.968 14.84C28.112 15.8 29.76 17.176 30.912 18.968C32.064 20.76 32.64 22.888 32.64 25.352C32.64 27.816 32.064 29.944 30.912 31.736C29.76 33.496 28.112 34.856 25.968 35.816C23.856 36.744 21.312 37.208 18.336 37.208H7.968L10.752 34.376V47H4.512ZM26.496 47L18 34.808H24.672L33.216 47H26.496ZM10.752 35.048L7.968 32.072H18.048C20.8 32.072 22.864 31.48 24.24 30.296C25.648 29.112 26.352 27.464 26.352 25.352C26.352 23.208 25.648 21.56 24.24 20.408C22.864 19.256 20.8 18.68 18.048 18.68H7.968L10.752 15.608V35.048ZM40.3714 47V13.4H54.1954C57.1714 13.4 59.7154 13.88 61.8274 14.84C63.9714 15.8 65.6194 17.176 66.7714 18.968C67.9234 20.76 68.4994 22.888 68.4994 25.352C68.4994 27.816 67.9234 29.944 66.7714 31.736C65.6194 33.496 63.9714 34.856 61.8274 35.816C59.7154 36.744 57.1714 37.208 54.1954 37.208H43.8274L46.6114 34.376V47H40.3714ZM62.3554 47L53.8594 34.808H60.5314L69.0754 47H62.3554ZM46.6114 35.048L43.8274 32.072H53.9074C56.6594 32.072 58.7234 31.48 60.0994 30.296C61.5074 29.112 62.2114 27.464 62.2114 25.352C62.2114 23.208 61.5074 21.56 60.0994 20.408C58.7234 19.256 56.6594 18.68 53.9074 18.68H43.8274L46.6114 15.608V35.048Z" fill="black"/>
<rect x="76" y="38" width="9" height="9" rx="1" fill="black"/>
</svg>
